<?xml version="1.0" standalone="no"?>
<!DOCTYPE svg PUBLIC "-//W3C//DTD SVG 20010904//EN"
 "http://www.w3.org/TR/2001/REC-SVG-20010904/DTD/svg10.dtd">
<svg version="1.0" xmlns="http://www.w3.org/2000/svg"
 width="1120.000000pt" height="1120.000000pt" viewBox="0 0 1120.000000 1120.000000"
 preserveAspectRatio="xMidYMid meet">

<g transform="translate(0.000000,1120.000000) scale(0.100000,-0.100000)"
fill="#000000" stroke="none">
<path d="M4320 7429 c-276 -23 -546 -147 -708 -324 -29 -31 -57 -66 -63 -77
-10 -19 -9 -19 22 -3 40 21 137 55 157 55 8 0 -12 -29 -46 -67 -32 -38 -95
-120 -138 -183 -119 -174 -278 -330 -336 -330 -10 0 -18 -4 -18 -9 0 -12 45
-22 99 -23 23 0 41 -4 41 -9 0 -14 -95 -122 -171 -194 -258 -243 -587 -428
-844 -475 -110 -20 -111 -23 -15 -69 140 -67 219 -84 405 -85 88 -1 175 2 193
6 30 7 32 6 22 -13 -6 -11 -51 -73 -100 -137 -99 -131 -236 -281 -316 -347
-30 -24 -51 -46 -47 -48 28 -17 147 -30 253 -30 140 2 226 17 373 67 53 18 97
32 97 31 0 -1 -7 -20 -16 -41 -39 -93 -100 -205 -161 -293 l-65 -94 48 8 c133
20 343 100 474 181 40 24 73 44 75 44 1 0 -11 -38 -27 -85 -49 -144 -69 -249
-75 -408 -8 -201 14 -328 83 -483 l26 -59 23 101 c43 189 131 365 257 514 l63
75 6 -130 c3 -72 12 -152 19 -180 31 -122 123 -273 213 -351 44 -37 145 -97
186 -109 l24 -7 -23 36 c-47 78 -73 144 -88 229 -13 75 -14 103 -4 185 7 53
18 114 24 135 l12 39 22 -90 c22 -90 80 -229 92 -218 3 3 15 46 28 94 37 148
85 228 265 442 113 135 194 250 218 308 8 18 17 32 22 32 15 0 43 -155 43
-242 1 -49 3 -88 6 -88 3 0 22 28 42 63 203 341 219 680 52 1064 -68 157 -79
207 -79 368 0 228 33 285 156 269 60 -8 68 -20 76 -115 7 -83 16 -80 67 21 47
95 62 185 47 285 -17 116 -51 183 -132 259 -71 68 -92 99 -104 156 -28 130
-170 244 -393 314 -66 21 -240 50 -262 45 -3 -1 -48 -5 -100 -10z m195 -80
c204 -28 384 -119 435 -220 38 -74 16 -181 -45 -219 -69 -42 -172 -21 -364 74
-203 101 -377 153 -544 163 -59 3 -105 8 -103 10 24 24 414 81 458 68 10 -4
18 -4 18 -1 0 7 -59 33 -130 57 l-55 18 55 -4 c30 -2 91 -7 135 -10 l80 -5
-35 19 c-19 10 -54 25 -78 32 -90 27 25 39 173 18z m-167 -420 c-14 -40 4
-122 37 -171 32 -47 114 -88 174 -88 26 1 71 10 101 21 99 36 140 48 140 41 0
-16 -79 -82 -160 -134 -112 -72 -128 -91 -57 -67 104 35 234 47 355 32 l53 -6
-53 -21 c-156 -64 -279 -208 -323 -381 -8 -32 -15 -75 -15 -95 0 -33 2 -32 37
38 34 69 143 200 184 222 16 9 16 6 -4 -37 -20 -43 -22 -64 -21 -198 0 -128 4
-160 23 -215 44 -128 43 -123 18 -103 -26 21 -104 105 -135 147 l-22 29 -1
-129 c-1 -71 -4 -172 -8 -224 l-6 -95 -77 170 c-42 94 -82 189 -89 213 l-13
44 -33 -139 c-18 -76 -43 -186 -55 -245 -12 -60 -25 -105 -28 -100 -17 18 -44
242 -56 459 l-7 123 -56 -74 c-90 -119 -226 -284 -229 -281 -6 6 40 218 69
319 16 55 27 102 25 103 -2 2 -91 -45 -197 -105 -235 -132 -260 -145 -266
-139 -2 3 22 38 55 79 89 111 312 401 323 421 12 22 8 22 -201 -3 -233 -28
-232 -28 -105 38 155 81 345 208 345 230 0 4 -24 15 -53 24 -28 9 -106 36
-172 59 l-120 43 129 18 c72 10 135 19 140 21 6 3 -22 19 -61 37 -40 18 -73
36 -73 40 0 11 180 80 250 95 36 7 106 14 157 14 l92 1 -11 -31z m138 13 c7
-4 11 -26 11 -49 -3 -81 82 -123 146 -73 46 36 59 23 32 -30 -17 -33 -48 -45
-112 -44 -53 1 -87 23 -113 74 -40 78 -17 157 36 122z m639 -84 c31 -28 65
-68 76 -89 27 -53 49 -153 49 -223 l0 -60 -32 31 c-64 60 -178 98 -332 110
l-89 6 55 51 c30 28 72 74 93 101 46 60 106 125 116 125 4 0 33 -23 64 -52z"/>
<path d="M5037 6803 c-4 -3 -7 -19 -7 -35 0 -22 4 -28 23 -28 47 0 88 50 51
64 -21 8 -59 8 -67 -1z"/>
<path d="M5981 6474 c-205 -74 -302 -310 -219 -532 30 -79 122 -171 203 -203
82 -31 207 -32 285 -1 54 21 130 75 130 92 0 5 -14 25 -31 44 l-31 35 -60 -30
c-221 -112 -406 41 -358 296 24 125 95 184 221 185 54 0 77 -6 125 -30 32 -16
60 -30 61 -30 1 0 18 21 38 47 l36 48 -23 18 c-65 53 -119 71 -228 74 -78 2
-117 -1 -149 -13z"/>
<path d="M6590 6261 c-35 -11 -92 -40 -112 -59 -17 -14 -17 -16 0 -44 26 -46
41 -49 106 -22 105 45 170 21 178 -66 l3 -35 -66 -7 c-99 -9 -178 -38 -221
-79 -35 -33 -38 -40 -38 -91 0 -91 55 -140 160 -141 47 0 68 6 114 31 63 36
66 37 66 19 0 -26 36 -47 78 -47 l42 0 0 188 c0 248 -17 303 -104 343 -43 19
-156 25 -206 10z m170 -361 c0 -50 -1 -51 -42 -70 -60 -27 -114 -26 -132 3
-40 61 20 114 132 116 l42 1 0 -50z"/>
<path d="M7037 6263 c-4 -3 -7 -127 -7 -275 l0 -268 70 0 70 0 0 176 c0 101 4
183 10 195 18 33 68 52 121 46 l48 -6 6 54 c11 82 5 88 -62 83 -52 -5 -60 -9
-94 -48 l-37 -43 -7 37 c-4 21 -13 39 -19 41 -29 9 -94 14 -99 8z"/>
<path d="M7554 6246 c-91 -42 -144 -135 -144 -251 0 -190 145 -307 336 -274
65 11 154 58 154 81 -1 7 -12 26 -25 43 l-24 29 -47 -22 c-60 -29 -134 -39
-174 -22 -35 15 -66 60 -75 112 l-7 38 178 2 179 3 3 38 c8 100 -59 209 -144
235 -67 20 -152 15 -210 -12z m201 -101 c16 -15 25 -36 25 -55 l0 -30 -115 0
-115 0 15 38 c23 54 50 72 113 72 43 0 57 -5 77 -25z"/>
<path d="M8135 6246 c-62 -29 -87 -55 -121 -130 -23 -51 -26 -67 -22 -135 8
-137 73 -222 196 -257 72 -21 150 -13 221 24 76 38 84 54 45 92 l-30 31 -51
-26 c-35 -17 -67 -25 -103 -25 -47 0 -56 4 -91 39 -23 23 -40 49 -40 65 -1 14
-2 32 -3 39 -1 9 43 13 174 17 l175 5 3 55 c4 71 -19 129 -68 174 -68 61 -193
76 -285 32z m200 -101 c14 -13 25 -31 25 -39 0 -8 3 -21 6 -30 5 -14 -8 -16
-110 -16 -128 0 -131 2 -101 60 20 39 41 49 103 50 43 0 57 -5 77 -25z"/>
<path d="M8607 6263 c-4 -3 -7 -127 -7 -275 l0 -269 71 3 70 3 2 176 c2 134 6
181 17 193 26 32 71 48 117 43 38 -4 44 -2 49 18 3 12 4 41 2 66 l-3 44 -54 3
c-52 3 -54 2 -97 -44 -42 -45 -44 -46 -44 -20 0 38 -33 66 -78 66 -21 0 -42
-3 -45 -7z"/>
<path d="M7980 5195 l0 -395 76 0 75 0 -1 123 -2 122 27 -2 c37 -3 49 -15 91
-91 21 -37 50 -86 66 -109 l29 -43 78 0 78 0 -61 95 c-33 52 -77 120 -97 152
l-37 57 47 60 c25 33 67 83 94 112 26 28 47 55 47 58 0 3 -33 6 -73 6 -70 0
-75 -2 -104 -32 -16 -18 -43 -51 -58 -73 -48 -68 -78 -95 -102 -95 l-23 0 -2
223 -3 222 -72 3 -73 3 0 -396z"/>
<path d="M5764 5468 c3 -50 6 -221 6 -380 l0 -288 75 0 75 0 0 163 c0 90 2
166 4 168 2 2 81 3 175 1 l171 -3 2 -162 3 -162 78 -3 77 -3 0 381 0 380 -80
0 -80 0 0 -160 0 -160 -175 0 -175 0 0 160 0 160 -81 0 -82 0 7 -92z"/>
<path d="M6709 5336 c-50 -13 -139 -62 -139 -76 0 -15 51 -70 65 -70 7 0 32 9
56 20 56 25 120 26 149 2 17 -14 23 -30 24 -63 l1 -44 -72 -6 c-184 -17 -274
-93 -243 -207 29 -108 185 -138 295 -57 l31 23 16 -29 c15 -26 22 -29 69 -29
l51 0 -4 203 c-4 226 -12 256 -69 300 -61 45 -141 57 -230 33z m159 -362 c-2
-38 -8 -51 -31 -68 -33 -25 -114 -29 -140 -7 -18 14 -22 57 -8 79 12 20 80 41
134 42 l48 0 -3 -46z"/>
<path d="M7079 5336 c-4 -4 71 -246 148 -476 l18 -55 67 -3 66 -3 31 98 c16
54 41 138 56 187 14 50 27 92 30 94 2 2 7 -9 11 -24 14 -63 87 -320 96 -336 7
-14 22 -18 73 -18 l64 0 41 130 c22 72 58 188 80 259 22 70 40 133 40 140 0
19 -114 14 -133 -6 -11 -14 -92 -327 -98 -380 0 -4 -18 57 -38 137 -56 216
-60 228 -77 245 -18 17 -76 20 -104 5 -20 -11 -39 -64 -95 -275 -25 -91 -34
-114 -39 -95 -3 14 -17 79 -31 145 -39 186 -51 222 -77 229 -27 7 -123 8 -129
2z"/>
</g>
</svg>
