<?xml version="1.0" encoding="utf-8"?>
<!-- Generator: Adobe Illustrator 27.5.0, SVG Export Plug-In . SVG Version: 6.00 Build 0)  -->
<svg version="1.1" id="Layer_1" xmlns="http://www.w3.org/2000/svg" xmlns:xlink="http://www.w3.org/1999/xlink" x="0px" y="0px"
	 viewBox="0 0 1024 1024" style="enable-background:new 0 0 1024 1024;" xml:space="preserve">
<g id="artwork_1_">
	<path d="M436.964,151.208c91.111-53.28,203.676-72.55,306.103-44.131c61.41,17.351,120.28,51.833,157.937,104.213
		c-18.503,31.413-58.918,37.89-92.351,36.665c-15.788,42.332-70.277,64.228-109.85,40.753
		c-24.081-13.368-40.075-39.233-42.288-66.574c-44.869-6.919-90.596-7.835-135.716-2.862
		c22.03,69.717,58.799,140.997,125.182,177.604c-126.052-10.402-254.934,18.71-364.047,82.362
		c83.587-33.508,173.473-55.759,264.052-51.185c-35.219,18.784-65.349,50.285-75.736,89.547
		c25.748-19.328,54.726-33.95,84.738-45.429c-20.598,37.52-24.081,82.582-17.235,124.265c16.099-33.979,36.828-66.854,66.102-91.008
		c-12.482,28.108-11.153,59.876-7.494,89.724c7.274,58.179,1.092,118.66-22.266,172.75
		c-26.721,63.652-75.647,115.959-132.498,154.129c23.756-37.122,41.299-78.201,50.786-121.284
		c-64.404,64.153-146.485,114.424-237.11,129.267c38.171-25.924,71.208-58.901,99.522-95.197
		c-93.93,44.366-195.103,76.813-298.918,85.164c39.986-32.357,82.686-61.277,123.055-93.146c-6.005-25.896-1.667-52.749,4.043-78.29
		c11.952-51.818,39.115-99.653,76.43-137.413c56.201-55.964,125.578-95.684,191.915-138.03
		c-98.075,37.078-196.651,84.663-267.254,164.53C115.411,716.008,71.973,815.988,56.834,918.681
		c-31.53-115.028,1.299-241.419,74.29-334.034c52.498-68.566,125.608-117.61,200.99-157.833
		c-89.842,25.275-173.059,74.379-238.453,140.999c68.626-138.048,180.85-252.751,314.986-328.178
		c-47.953,7.392-92.882,28.653-132.188,56.6C321.035,239.234,373.989,187.608,436.964,151.208 M587.094,158.792
		c70.75,9.162,137.427,35.913,204.296,59.417c29.555,10.609,69.878,16.274,92.733-10.284
		C788.217,178.785,688.519,146.795,587.094,158.792 M737.667,270.56c17.779-0.03,34.35-12.881,40.029-29.51
		c-3.821-0.633-4.352,3.659-5.916,6.079c-8.278,16.497-30.321,25.969-47.319,17.308c-15.183-8.277-20.729-27.842-15.64-43.778
		c-7.466-2.243-14.888-4.648-22.221-7.259C682.868,242.481,707.876,271.902,737.667,270.56 M439.81,536.266
		c1.949,2.936,3.821,5.931,5.682,8.94c10.076-3.201,19.624-7.775,29.583-11.288c-1.492-1.858-2.951-3.747-4.426-5.606
		C460.35,530.879,450.39,534.79,439.81,536.266 M411.408,540.868c1.727,3.586,3.41,7.201,5.017,10.846
		c7.465-1.668,14.992-3.157,22.428-5.002c-2.066-2.834-4.161-5.637-6.301-8.41C425.529,539.378,418.506,540.425,411.408,540.868
		 M459.922,567.485c3.217,3.454,6.241,7.099,9.222,10.787c8.942-4.323,18.001-8.381,26.809-12.984
		c-2.684-3.364-5.312-6.757-7.864-10.195C478.912,559.696,469.616,564.078,459.922,567.485 M420.911,580.824
		c3.437,3.866,6.787,7.805,9.899,11.938c9.857-3.113,19.27-7.452,29.068-10.713c-3.32-3.512-6.566-7.11-9.784-10.712
		C440.504,574.893,430.929,578.611,420.911,580.824 M383.123,587.996c2.892,5.37,6.522,10.283,9.458,15.625
		c9.325-2.848,18.723-5.475,28.211-7.732c-3.469-4.337-7.23-8.425-11.155-12.319C400.874,585.486,391.99,586.712,383.123,587.996
		 M481.389,604.448c3.719,3.422,7.54,6.712,11.407,9.987c8.985-6.285,18.606-11.582,27.68-17.734
		c-3.467-2.877-6.742-5.961-9.886-9.162C501.133,593.632,491.424,599.343,481.389,604.448 M444.252,622.506
		c3.659,3.557,7.377,7.068,11.302,10.359c9.266-4.618,18.768-8.853,27.754-13.988c-3.955-2.951-7.732-6.094-11.332-9.442
		C462.843,614.038,453.873,618.967,444.252,622.506 M514.309,631.449c5.888,2.566,11.759,7.022,18.016,7.672
		c7.834-6.256,15.906-12.232,23.681-18.577c-4.854-2.861-10.019-5.135-14.946-7.862
		C531.852,618.523,523.678,625.842,514.309,631.449 M405.669,636.199c3.895,4.234,8.026,8.233,11.906,12.497
		c9.28-3.94,18.577-7.819,27.901-11.641c-3.939-3.467-8.115-6.654-12.068-10.093C424.2,630.18,415.17,633.898,405.669,636.199
		 M477.392,653.477c6.05,3.142,11.76,7.526,18.208,9.591c8.838-5.104,17.115-11.39,25.983-16.599
		c-5.312-3.748-11.495-5.888-17.264-8.734C495.333,642.972,486.747,648.89,477.392,653.477 M369.238,642.721
		c3.616,5.164,7.585,10.093,10.757,15.582c9.089-2.76,18.458-4.471,27.546-7.23c-4.529-4.043-8.97-8.189-13.529-12.201
		C385.868,640.788,377.545,641.836,369.238,642.721 M438.955,672.084c5.431,4.249,10.992,8.395,16.998,11.804
		c9.427-4.324,18.545-9.385,28.093-13.516c-5.165-4.899-11.996-7.155-17.986-10.771C457.207,664.174,448.059,668.07,438.955,672.084
		 M396.816,685.938c5.459,4.825,11.272,9.267,16.496,14.356c10.063-3.246,19.905-7.216,29.701-11.199
		c-5.474-4.146-10.889-8.44-16.865-11.834C416.307,679.8,406.864,683.99,396.816,685.938 M533.459,678.709
		c-7.76,6.536-14.488,14.268-22.456,20.626c14.342,4.279,28.861,7.998,43.364,11.731c6.287-9.591,12.558-19.196,18.96-28.714
		C560.034,681.319,546.755,679.49,533.459,678.709 M356.255,693.124c4.618,5.857,10.018,11.051,14.681,16.895
		c9.665-0.945,19.227-4.84,28.993-6.272c-5.134-5.223-10.608-10.092-16.259-14.755C374.58,690.719,365.447,692.104,356.255,693.124
		 M494.404,713.516c-9.532,5.989-18.812,12.424-28.727,17.779c13.485,8.822,27.709,16.672,42.021,24.153
		c10.241-8.498,19.625-17.972,29.702-26.648C523.206,723.327,508.717,718.68,494.404,713.516 M211.982,728.3
		c3.378,10.004,7.938,19.55,12.63,28.979c6.979-5.031,14.297-9.548,21.615-14.062c-6.035-6.699-11.317-14.002-16.451-21.38
		C223.948,724.286,217.987,726.367,211.982,728.3 M413.518,753.516c11.243,11.582,23.402,22.249,35.101,33.331
		c13.708-4.383,26.618-12.733,39.928-18.856c-13.529-9.443-27.37-18.43-41.432-27.061
		C436.182,745.799,424.878,749.797,413.518,753.516 M263.211,756.082c-8.382,6.655-16.894,13.148-24.892,20.274
		c11.715,8.557,23.533,17.396,37.108,22.796c4.515-12.423,9.576-24.655,14.476-36.932
		C280.842,760.908,272.065,758.296,263.211,756.082 M364.975,762.753c6.567,14.06,13.441,27.959,19.948,42.051
		c14.608-3.055,29.186-6.389,43.616-10.255c-11.199-12.32-22.501-24.553-34.276-36.326
		C384.599,760.272,374.816,761.808,364.975,762.753 M311.828,763.637c-3.112,14.282-5.917,28.64-8.764,42.982
		c17.839,0.634,35.691,0.988,53.546,1.461c-4.131-14.623-9.104-28.979-13.339-43.558
		C332.809,763.711,322.304,764.287,311.828,763.637z"/>
	<path d="M898.289,239.161c68.328,22.693,99.742,108.98,69.066,172.485c-9.945,23.281-26.941,42.935-46.92,58.222
		c16.791-30.381,26.469-76.918-4.928-101.425c-34.01-26.5-82.391-38.613-124.045-26.972c49.282-2.479,110.087,6.107,138.549,51.479
		c-27.327,2.657-54.769,0.015-81.684-4.337c-35.544,7.909-67.739,26.071-99.329,43.585c18.443-20.184,42.301-34.29,62.103-52.939
		c6.095-5.637,1.049-14.578-4.912-17.942c-14.74-9.592-32.964-5.579-49.327-4.354c-19.3,1.816-39.38-8.336-48.396-25.659
		c22.605,24.006,58.399,13.323,83.396-0.634c33.877-16.319,81.696-2.611,105.982-37.226
		C908.469,277.391,906.609,255.79,898.289,239.161z"/>
	<path d="M862.596,264.142c9.695-3.793,20.097,0.117,28.375,5.429c-3.853,3.409-6.581,7.85-10.21,11.405
		c-13.001-1.608-25.66,5.725-31.045,17.604C844.434,286.259,849.406,269.114,862.596,264.142z"/>
	<path d="M650.525,533.033c26.131-41.829,70.705-68.359,116.224-84.53c-29.732,27.193-61.189,53.81-83.453,87.822
		c-12.572,18.618-11.834,41.666-9.827,63.06c4.16,78.674-27.724,155.207-74.334,217.148
		c37.565-72.578,59.225-157.995,39.779-239.072C636.803,561.791,642.484,546.254,650.525,533.033z"/>
</g>
</svg>
